<svg xmlns="http://www.w3.org/2000/svg" xmlns:xlink="http://www.w3.org/1999/xlink" viewBox="0 0 107.03 103.9"><defs><style>.cls-1{isolation:isolate;}.cls-2{fill:url(#linear-gradient);}.cls-3{fill:#ec6515;}.cls-4{fill:url(#linear-gradient-2);}.cls-5{fill:#eb7a1d;}.cls-6{fill:#f49924;}.cls-7,.cls-8,.cls-9{opacity:0.25;}.cls-7{fill:url(#linear-gradient-3);}.cls-8{fill:url(#Sfumatura_senza_nome_75);}.cls-9{fill:url(#linear-gradient-4);}.cls-10,.cls-11{opacity:0.17;mix-blend-mode:soft-light;}.cls-10{fill:url(#Sfumatura_senza_nome_187);}.cls-11{fill:url(#Sfumatura_senza_nome_187-2);}</style><linearGradient id="linear-gradient" x1="183.67" y1="362.74" x2="170.61" y2="385.37" gradientUnits="userSpaceOnUse"><stop offset="0" stop-color="#2075bb"/><stop offset="0.77" stop-color="#29abe3"/><stop offset="1" stop-color="#27b9d0"/></linearGradient><linearGradient id="linear-gradient-2" x1="142.19" y1="342.38" x2="114.43" y2="390.46" xlink:href="#linear-gradient"/><linearGradient id="linear-gradient-3" x1="151.33" y1="373.41" x2="204.92" y2="373.41" gradientUnits="userSpaceOnUse"><stop offset="0" stop-color="#0067b2"/><stop offset="0.06" stop-color="#0069b4" stop-opacity="0.77"/><stop offset="0.13" stop-color="#006bb6" stop-opacity="0.54"/><stop offset="0.2" stop-color="#006db7" stop-opacity="0.34"/><stop offset="0.28" stop-color="#006eb8" stop-opacity="0.19"/><stop offset="0.35" stop-color="#006fb9" stop-opacity="0.09"/><stop offset="0.43" stop-color="#0070ba" stop-opacity="0.02"/><stop offset="0.51" stop-color="#0070ba" stop-opacity="0"/><stop offset="1" stop-color="#0070ba" stop-opacity="0"/></linearGradient><linearGradient id="Sfumatura_senza_nome_75" x1="186.84" y1="416.56" x2="206.77" y2="416.56" gradientUnits="userSpaceOnUse"><stop offset="0" stop-color="#20264b"/><stop offset="0.09" stop-color="#342857" stop-opacity="0.81"/><stop offset="0.31" stop-color="#5c2b6d" stop-opacity="0.46"/><stop offset="0.53" stop-color="#782e7c" stop-opacity="0.2"/><stop offset="0.76" stop-color="#882f86" stop-opacity="0.05"/><stop offset="1" stop-color="#8e3089" stop-opacity="0"/></linearGradient><linearGradient id="linear-gradient-4" x1="102.82" y1="368.89" x2="152.02" y2="368.89" xlink:href="#linear-gradient-3"/><linearGradient id="Sfumatura_senza_nome_187" x1="112.27" y1="445.08" x2="204.72" y2="445.08" gradientUnits="userSpaceOnUse"><stop offset="0" stop-color="#e82f7c" stop-opacity="0"/><stop offset="0.03" stop-color="#eb4c8e" stop-opacity="0.14"/><stop offset="0.08" stop-color="#f075a8" stop-opacity="0.34"/><stop offset="0.13" stop-color="#f49abf" stop-opacity="0.51"/><stop offset="0.18" stop-color="#f7b9d3" stop-opacity="0.66"/><stop offset="0.24" stop-color="#fad3e3" stop-opacity="0.79"/><stop offset="0.3" stop-color="#fce6ef" stop-opacity="0.88"/><stop offset="0.36" stop-color="#fef4f8" stop-opacity="0.95"/><stop offset="0.42" stop-color="#fffcfd" stop-opacity="0.99"/><stop offset="0.5" stop-color="#fff"/><stop offset="0.56" stop-color="#fdfbfc" stop-opacity="0.98"/><stop offset="0.62" stop-color="#f9f0f5" stop-opacity="0.93"/><stop offset="0.69" stop-color="#f1dee8" stop-opacity="0.85"/><stop offset="0.75" stop-color="#e6c4d6" stop-opacity="0.74"/><stop offset="0.82" stop-color="#d7a3bf" stop-opacity="0.59"/><stop offset="0.88" stop-color="#c67ba3" stop-opacity="0.41"/><stop offset="0.95" stop-color="#b24c82" stop-opacity="0.2"/><stop offset="1" stop-color="#9f2064" stop-opacity="0"/></linearGradient><linearGradient id="Sfumatura_senza_nome_187-2" x1="99.74" y1="418.55" x2="114.79" y2="418.55" xlink:href="#Sfumatura_senza_nome_187"/></defs><title>Logo_Icon_Color</title><g class="cls-1"><g id="Logo"><path class="cls-2" d="M161.27,363.58l27.17,20.11a11.85,11.85,0,0,1,4.93,9.56v5.26l1.62-.95c5.75-3.91,10-7.14,9.93-13.24v-.19a5.8,5.8,0,0,0-.13-.6,16.21,16.21,0,0,0-3-3.88,17.54,17.54,0,0,0-1.6-1.35l-36.25-26.82a17.07,17.07,0,0,0-3.8-2.13,17.88,17.88,0,0,0-3.62-1,14.57,14.57,0,0,1-.6,4.72,20.38,20.38,0,0,1-2.29,5.05.21.21,0,0,1,0,.06,19.08,19.08,0,0,1-2.26,3,13.8,13.8,0,0,1,1.92-.15A13.56,13.56,0,0,1,161.27,363.58Z" transform="translate(-99.74 -348.05)"/><path class="cls-3" d="M190.48,434.5a12.56,12.56,0,0,1-3.64,3.51c3.51,3.3,6.72,5.6,10.82,5.53a11.62,11.62,0,0,0,2.83-.38,10,10,0,0,0,5.82-3.72c0-.15.05-.31.07-.45h0c0,.15,0,.3-.07.45l0-.06a15.5,15.5,0,0,0,.42-3.49V391.06c0-.5,0-1-.08-1.49,0,.3-.06.59-.11.88-.76,4.88-4.67,7.83-9.78,11.3l-3.31,1.94-.12.08v23.09A11.62,11.62,0,0,1,190.48,434.5Z" transform="translate(-99.74 -348.05)"/><path class="cls-4" d="M109.69,386c.37.3.67.61,1,.91a19.29,19.29,0,0,1,2.47,2.8,12,12,0,0,1,1.86-2.9,13.62,13.62,0,0,1,1.7-1.6,11.16,11.16,0,0,1,1.26-1.1l27.16-20.48a14,14,0,0,1,1.31-.85c.2-.27.41-.53.6-.82a29.59,29.59,0,0,0,3.71-7.09,21,21,0,0,0,1.26-6.84,18,18,0,0,0-9.58,3.52L106.19,378.9a17.08,17.08,0,0,0-3.14,3.1,3.55,3.55,0,0,0-.23.31,17.51,17.51,0,0,1,5.34,2.56C108.67,385.22,109.18,385.6,109.69,386Z" transform="translate(-99.74 -348.05)"/><path class="cls-5" d="M204.5,443.89l.22-.34a10,10,0,0,1-5.83,3.73,11.17,11.17,0,0,1-2.84.38,10.13,10.13,0,0,1-2.35-.23c-3.72-.81-6.83-3.63-10.43-7.19l-.47-.53a14.11,14.11,0,0,1-3.21.4H125.08a13.4,13.4,0,0,1-6.91-1.9c-.34.37-.69.74-1,1.1-3.23,3.72-4.76,6.91-4.89,9.36a4.84,4.84,0,0,0,.64,2.79,17.73,17.73,0,0,0,3.21.43h.17c.68-.06,1.39-.15,2.13-.29a17.14,17.14,0,0,1-2.13.29h-.12c.24,0,.48.06.72.06h72.71a18.08,18.08,0,0,0,8.87-2.31,17.29,17.29,0,0,0,2.4-1.65,16,16,0,0,0,2.28-2.23c.16-.18.31-.37.45-.56s.24-.31.35-.47S204.33,444.18,204.5,443.89Z" transform="translate(-99.74 -348.05)"/><path class="cls-6" d="M113.09,437.15c.52-.59,1.1-1.21,1.7-1.83-.15-.19-.31-.38-.45-.57a11.59,11.59,0,0,1-2.25-6.85V394.56c0-.11,0-.22,0-.33a22.62,22.62,0,0,0-3-3l-.18-.15c-.6-.5-1.19-.94-1.78-1.35a20.51,20.51,0,0,0-6.57-3.09,15.27,15.27,0,0,0-.83,5v44.32a15.32,15.32,0,0,0,1.79,7.13,17.24,17.24,0,0,0,5.65,6.11l0,0,.22-.19a1.43,1.43,0,0,0-.09.27l.22.11q.56.33,1.14.63c.36.18.72.36,1.09.52a4.54,4.54,0,0,1-1.61-4C108.33,444.06,109.86,440.88,113.09,437.15Z" transform="translate(-99.74 -348.05)"/><path class="cls-7" d="M161.27,363.58l27.17,20.11a11.85,11.85,0,0,1,4.93,9.56v5.26l1.62-.95c5.75-3.91,10-7.14,9.93-13.24v-.19a5.8,5.8,0,0,0-.13-.6,16.21,16.21,0,0,0-3-3.88,17.54,17.54,0,0,0-1.6-1.35l-36.25-26.82a17.07,17.07,0,0,0-3.8-2.13,17.88,17.88,0,0,0-3.62-1,14.57,14.57,0,0,1-.6,4.72,20.38,20.38,0,0,1-2.29,5.05.21.21,0,0,1,0,.06,19.08,19.08,0,0,1-2.26,3,13.38,13.38,0,0,1,9.94,2.46Z" transform="translate(-99.74 -348.05)"/><path class="cls-8" d="M190.48,434.5a12.56,12.56,0,0,1-3.64,3.51c3.51,3.3,6.72,5.6,10.82,5.53a11.62,11.62,0,0,0,2.83-.38,10,10,0,0,0,5.82-3.72c0-.15.05-.31.07-.45h0c0,.15,0,.3-.07.45l0-.06a15.5,15.5,0,0,0,.42-3.49V391.06c0-.5,0-1-.08-1.49,0,.3-.06.59-.11.88-.76,4.88-4.67,7.83-9.78,11.3l-3.31,1.94-.12.08v23.09A11.62,11.62,0,0,1,190.48,434.5Z" transform="translate(-99.74 -348.05)"/><path class="cls-9" d="M109.69,386c.37.3.67.61,1,.91a19.29,19.29,0,0,1,2.47,2.8,12,12,0,0,1,1.86-2.9,13.62,13.62,0,0,1,1.7-1.6,11.16,11.16,0,0,1,1.26-1.1l27.16-20.48a14,14,0,0,1,1.31-.85c.2-.27.41-.53.6-.82a29.59,29.59,0,0,0,3.71-7.09,21,21,0,0,0,1.26-6.84,18,18,0,0,0-9.58,3.52L106.19,378.9a17.08,17.08,0,0,0-3.14,3.1,3.55,3.55,0,0,0-.23.31,17.51,17.51,0,0,1,5.34,2.56C108.67,385.22,109.18,385.6,109.69,386Z" transform="translate(-99.74 -348.05)"/><path class="cls-10" d="M204.5,443.89l.22-.34a10,10,0,0,1-5.83,3.73,11.17,11.17,0,0,1-2.84.38,10.13,10.13,0,0,1-2.35-.23c-3.72-.81-6.83-3.63-10.43-7.19l-.47-.53a14.11,14.11,0,0,1-3.21.4H125.08a13.4,13.4,0,0,1-6.91-1.9c-.34.37-.69.74-1,1.1-3.23,3.72-4.76,6.91-4.89,9.36a4.84,4.84,0,0,0,.64,2.79,17.73,17.73,0,0,0,3.21.43h.17c.68-.06,1.39-.15,2.13-.29a17.14,17.14,0,0,1-2.13.29h-.12c.24,0,.48.06.72.06h72.71a18.08,18.08,0,0,0,8.87-2.31,17.29,17.29,0,0,0,2.4-1.65,16,16,0,0,0,2.28-2.23c.16-.18.31-.37.45-.56s.24-.31.35-.47S204.33,444.18,204.5,443.89Z" transform="translate(-99.74 -348.05)"/><path class="cls-11" d="M113.09,437.15c.52-.59,1.1-1.21,1.7-1.83-.15-.19-.31-.38-.45-.57a11.59,11.59,0,0,1-2.25-6.85V394.56c0-.11,0-.22,0-.33a22.62,22.62,0,0,0-3-3l-.18-.15c-.6-.5-1.19-.94-1.78-1.35a20.51,20.51,0,0,0-6.57-3.09,15.27,15.27,0,0,0-.83,5v44.32a15.32,15.32,0,0,0,1.79,7.13,17.24,17.24,0,0,0,5.65,6.11l0,0,.22-.19a1.43,1.43,0,0,0-.09.27l.22.11q.56.33,1.14.63c.36.18.72.36,1.09.52a4.54,4.54,0,0,1-1.61-4C108.33,444.06,109.86,440.88,113.09,437.15Z" transform="translate(-99.74 -348.05)"/></g></g></svg>